<?xml version="1.0" encoding="UTF-8"?>
<!DOCTYPE svg PUBLIC "-//W3C//DTD SVG 1.1//EN" "http://www.w3.org/Graphics/SVG/1.1/DTD/svg11.dtd">
<svg xmlns="http://www.w3.org/2000/svg" version="1.1" width="480px" height="480px" style="shape-rendering:geometricPrecision; text-rendering:geometricPrecision; image-rendering:optimizeQuality; fill-rule:evenodd; clip-rule:evenodd" xmlns:xlink="http://www.w3.org/1999/xlink">
<g><path style="opacity:0.989" fill="#000000" d="M 101.5,10.5 C 193.501,10.3333 285.501,10.5 377.5,11C 431.667,17.1667 461.833,47.3333 468,101.5C 468.667,193.833 468.667,286.167 468,378.5C 461.833,432.667 431.667,462.833 377.5,469C 285.5,469.667 193.5,469.667 101.5,469C 47.3333,462.833 17.1667,432.667 11,378.5C 10.0193,283.477 10.3527,188.477 12,93.5C 21.1759,43.4888 51.0092,15.8221 101.5,10.5 Z"/></g>
<g><path style="opacity:1" fill="#c7b5a5" d="M 144.5,195.5 C 143.167,195.5 141.833,195.5 140.5,195.5C 140.5,283.5 140.5,371.5 140.5,459.5C 123.413,460.103 106.413,459.27 89.5,457C 51.9786,449.157 29.8119,426.324 23,388.5C 22.0934,382.527 21.4267,376.527 21,370.5C 20.3333,281.167 20.3333,191.833 21,102.5C 26.1667,53.3333 53.3333,26.1667 102.5,21C 191.5,20.3333 280.5,20.3333 369.5,21C 423.534,23.7921 452.868,51.9587 457.5,105.5C 353.167,105.5 248.833,105.5 144.5,105.5C 144.5,108.833 144.5,112.167 144.5,115.5C 249.167,115.5 353.833,115.5 458.5,115.5C 458.5,142.167 458.5,168.833 458.5,195.5C 353.833,195.5 249.167,195.5 144.5,195.5 Z"/></g>
<g><path style="opacity:1" fill="#635b52" d="M 144.5,195.5 C 143.791,196.404 142.791,196.737 141.5,196.5C 141.833,284.335 141.499,372.002 140.5,459.5C 140.5,371.5 140.5,283.5 140.5,195.5C 141.833,195.5 143.167,195.5 144.5,195.5 Z"/></g>
<g><path style="opacity:1" fill="#9d8b79" d="M 150.5,205.5 C 253.167,205.5 355.833,205.5 458.5,205.5C 458.5,231.167 458.5,256.833 458.5,282.5C 389.167,282.5 319.833,282.5 250.5,282.5C 250.5,285.833 250.5,289.167 250.5,292.5C 319.833,292.5 389.167,292.5 458.5,292.5C 458.5,320.5 458.5,348.5 458.5,376.5C 389.167,376.5 319.833,376.5 250.5,376.5C 250.5,379.833 250.5,383.167 250.5,386.5C 319.167,386.5 387.833,386.5 456.5,386.5C 448.038,432.429 420.372,456.596 373.5,459C 299.167,459.5 224.834,459.667 150.5,459.5C 150.5,374.833 150.5,290.167 150.5,205.5 Z"/></g>
</svg>
