<?xml version="1.0" encoding="UTF-8"?>
<!DOCTYPE svg PUBLIC "-//W3C//DTD SVG 1.1//EN" "http://www.w3.org/Graphics/SVG/1.1/DTD/svg11.dtd">
<svg xmlns="http://www.w3.org/2000/svg" version="1.1" width="1080px" height="360px" style="shape-rendering:geometricPrecision; text-rendering:geometricPrecision; image-rendering:optimizeQuality; fill-rule:evenodd; clip-rule:evenodd" xmlns:xlink="http://www.w3.org/1999/xlink">
<g><path style="opacity:0.973" fill="#050504" d="M 75.5,9.5 C 144.167,9.33334 212.834,9.5 281.5,10C 322,14.5 344.5,37 349,77.5C 349.667,146.5 349.667,215.5 349,284.5C 344.483,325.017 321.983,347.517 281.5,352C 212.833,352.667 144.167,352.667 75.5,352C 34.9801,347.48 12.4801,324.98 8,284.5C 7.0323,212.147 7.36564,139.814 9,67.5C 17.4133,32.2457 39.5799,12.9123 75.5,9.5 Z"/></g>
<g><path style="opacity:1" fill="#c7b5a5" d="M 107.5,147.5 C 106.5,147.5 105.5,147.5 104.5,147.5C 104.5,213.167 104.5,278.833 104.5,344.5C 88.2327,345.474 72.2327,343.974 56.5,340C 34.514,331.542 21.3473,315.709 17,292.5C 15.3555,219.527 15.0221,146.527 16,73.5C 21.1667,41.6667 39.6667,23.1667 71.5,18C 142.167,17.3333 212.833,17.3333 283.5,18C 319.613,23.2791 338.946,44.1124 341.5,80.5C 263.5,80.5 185.5,80.5 107.5,80.5C 107.5,83.1667 107.5,85.8333 107.5,88.5C 185.5,88.5 263.5,88.5 341.5,88.5C 341.5,108.167 341.5,127.833 341.5,147.5C 263.5,147.5 185.5,147.5 107.5,147.5 Z"/></g>
<g><path style="opacity:0.819" fill="#818181" d="M 477.5,81.5 C 495.262,78.8606 511.595,82.3606 526.5,92C 540.195,103.926 544.695,118.759 540,136.5C 533.16,154.689 519.993,164.856 500.5,167C 485.33,168.647 470.996,165.981 457.5,159C 439.683,145.245 434.85,127.745 443,106.5C 450.75,92.906 462.25,84.5727 477.5,81.5 Z M 487.5,109.5 C 504.118,109.923 509.951,117.923 505,133.5C 496.67,140.651 487.837,141.151 478.5,135C 470.073,122.448 473.073,113.948 487.5,109.5 Z"/></g>
<g><path style="opacity:0.844" fill="#828282" d="M 657.5,81.5 C 682.048,77.6049 699.714,86.6049 710.5,108.5C 706.511,111.161 702.178,113.328 697.5,115C 702.489,115.499 707.489,115.666 712.5,115.5C 716.08,148.362 701.414,165.696 668.5,167.5C 633.979,166.481 618.479,148.814 622,114.5C 627.3,96.3633 639.133,85.3633 657.5,81.5 Z M 665.5,108.5 C 670.757,108.317 674.757,110.484 677.5,115C 672.177,115.499 666.844,115.666 661.5,115.5C 661.666,123.507 661.5,131.507 661,139.5C 653.885,131.577 652.885,122.91 658,113.5C 660.17,111.177 662.67,109.51 665.5,108.5 Z"/></g>
<g><path style="opacity:0.79" fill="#828282" d="M 373.5,83.5 C 394.833,83.5 416.167,83.5 437.5,83.5C 437.5,92.5 437.5,101.5 437.5,110.5C 427.161,110.334 416.828,110.5 406.5,111C 416.161,111.5 425.828,111.666 435.5,111.5C 435.5,120.5 435.5,129.5 435.5,138.5C 425.833,138.5 416.167,138.5 406.5,138.5C 406.5,147.167 406.5,155.833 406.5,164.5C 395.5,164.5 384.5,164.5 373.5,164.5C 373.5,137.5 373.5,110.5 373.5,83.5 Z"/></g>
<g><path style="opacity:0.851" fill="#828282" d="M 543.5,83.5 C 559.536,83.1342 575.536,83.6342 591.5,85C 609.875,90.5772 616.709,102.744 612,121.5C 609.5,126.667 605.667,130.5 600.5,133C 607.667,141.5 614.833,150 622,158.5C 622.52,160.289 622.187,161.956 621,163.5C 608.909,164.654 596.742,164.821 584.5,164C 582.368,160.236 579.868,156.736 577,153.5C 576.501,157.152 576.335,160.818 576.5,164.5C 565.5,164.5 554.5,164.5 543.5,164.5C 543.5,137.5 543.5,110.5 543.5,83.5 Z M 576.5,109.5 C 579.78,110.732 580.114,112.399 577.5,114.5C 576.548,112.955 576.215,111.288 576.5,109.5 Z"/></g>
<g><path style="opacity:0.856" fill="#858585" d="M 716.5,83.5 C 737.833,83.5 759.167,83.5 780.5,83.5C 780.5,92.5 780.5,101.5 780.5,110.5C 769.813,110.168 759.146,110.501 748.5,111.5C 758.478,112.499 768.478,112.832 778.5,112.5C 778.5,120.833 778.5,129.167 778.5,137.5C 768.494,137.334 758.494,137.5 748.5,138C 759.161,138.5 769.828,138.667 780.5,138.5C 780.5,147.167 780.5,155.833 780.5,164.5C 759.167,164.5 737.833,164.5 716.5,164.5C 716.5,137.5 716.5,110.5 716.5,83.5 Z"/></g>
<g><path style="opacity:0.807" fill="#818181" d="M 782.5,83.5 C 804.167,83.5 825.833,83.5 847.5,83.5C 847.5,92.1667 847.5,100.833 847.5,109.5C 842.167,109.5 836.833,109.5 831.5,109.5C 831.5,127.833 831.5,146.167 831.5,164.5C 820.5,164.5 809.5,164.5 798.5,164.5C 798.5,146.167 798.5,127.833 798.5,109.5C 793.167,109.5 787.833,109.5 782.5,109.5C 782.5,100.833 782.5,92.1667 782.5,83.5 Z"/></g>
<g><path style="opacity:0.81" fill="#818181" d="M 849.5,83.5 C 870.833,83.5 892.167,83.5 913.5,83.5C 913.5,92.5 913.5,101.5 913.5,110.5C 903.161,110.334 892.828,110.5 882.5,111C 892.161,111.5 901.828,111.666 911.5,111.5C 911.5,120.5 911.5,129.5 911.5,138.5C 901.833,138.5 892.167,138.5 882.5,138.5C 882.5,147.167 882.5,155.833 882.5,164.5C 871.5,164.5 860.5,164.5 849.5,164.5C 849.5,137.5 849.5,110.5 849.5,83.5 Z"/></g>
<g><path style="opacity:0.777" fill="#828282" d="M 915.5,83.5 C 926.5,83.5 937.5,83.5 948.5,83.5C 948.333,100.17 948.5,116.837 949,133.5C 950.555,139.536 953.888,140.869 959,137.5C 959.973,135.608 960.64,133.608 961,131.5C 961.5,115.503 961.667,99.5035 961.5,83.5C 972.167,83.5 982.833,83.5 993.5,83.5C 993.667,102.17 993.5,120.836 993,139.5C 990.384,153.45 982.217,162.284 968.5,166C 953.983,169.301 940.316,167.301 927.5,160C 920.396,153.038 916.563,144.538 916,134.5C 915.5,117.503 915.333,100.503 915.5,83.5 Z"/></g>
<g><path style="opacity:0.829" fill="#818181" d="M 996.5,83.5 C 1007.41,83.1797 1018.25,83.513 1029,84.5C 1029.5,102.497 1029.67,120.497 1029.5,138.5C 1037.5,138.5 1045.5,138.5 1053.5,138.5C 1053.5,147.167 1053.5,155.833 1053.5,164.5C 1034.5,164.5 1015.5,164.5 996.5,164.5C 996.5,137.5 996.5,110.5 996.5,83.5 Z"/></g>
<g><path style="opacity:1" fill="#020202" d="M 475.5,85.5 C 484.506,85.3336 493.506,85.5002 502.5,86C 529.17,91.643 540.336,107.81 536,134.5C 530.683,150.813 519.516,160.313 502.5,163C 486.281,165.688 471.281,162.688 457.5,154C 441.014,137.682 439.18,119.848 452,100.5C 458.525,93.3282 466.358,88.3282 475.5,85.5 Z M 487.5,109.5 C 473.073,113.948 470.073,122.448 478.5,135C 487.837,141.151 496.67,140.651 505,133.5C 509.951,117.923 504.118,109.923 487.5,109.5 Z"/></g>
<g><path style="opacity:1" fill="#020202" d="M 680.5,138.5 C 681.043,138.44 681.376,138.107 681.5,137.5C 676.544,136.506 671.544,136.173 666.5,136.5C 666.5,130.833 666.5,125.167 666.5,119.5C 680.167,119.5 693.833,119.5 707.5,119.5C 707.263,120.791 707.596,121.791 708.5,122.5C 709.895,142.915 700.895,156.081 681.5,162C 666.607,165.575 652.607,163.575 639.5,156C 625.184,141.89 621.684,125.39 629,106.5C 643.048,86.2696 661.881,80.103 685.5,88C 695.181,91.8437 701.514,98.6771 704.5,108.5C 697.379,110.764 690.379,113.43 683.5,116.5C 679.176,106.99 671.842,103.49 661.5,106C 651.884,111.411 648.384,119.578 651,130.5C 655.786,144.64 664.952,148.473 678.5,142C 679.305,140.887 679.972,139.721 680.5,138.5 Z"/></g>
<g><path style="opacity:1" fill="#010101" d="M 432.5,87.5 C 432.5,93.8333 432.5,100.167 432.5,106.5C 421.986,106.172 411.653,106.506 401.5,107.5C 401.5,109.833 401.5,112.167 401.5,114.5C 411.167,114.5 420.833,114.5 430.5,114.5C 430.5,121.167 430.5,127.833 430.5,134.5C 420.833,134.5 411.167,134.5 401.5,134.5C 401.5,143.5 401.5,152.5 401.5,161.5C 393.5,161.5 385.5,161.5 377.5,161.5C 377.5,136.833 377.5,112.167 377.5,87.5C 395.833,87.5 414.167,87.5 432.5,87.5 Z"/></g>
<g><path style="opacity:1" fill="#010101" d="M 573.5,141.5 C 573.44,140.957 573.107,140.624 572.5,140.5C 571.503,147.468 571.17,154.468 571.5,161.5C 563.833,161.5 556.167,161.5 548.5,161.5C 548.5,136.833 548.5,112.167 548.5,87.5C 562.884,87.0889 577.217,87.5889 591.5,89C 607.558,94.6174 612.725,105.451 607,121.5C 605.542,123.96 603.709,126.127 601.5,128C 598.79,129.015 596.457,130.515 594.5,132.5C 602.312,142.146 610.312,151.646 618.5,161C 608.151,161.832 597.817,161.666 587.5,160.5C 582.809,154.148 578.142,147.815 573.5,141.5 Z M 576.5,109.5 C 576.215,111.288 576.548,112.955 577.5,114.5C 580.114,112.399 579.78,110.732 576.5,109.5 Z"/></g>
<g><path style="opacity:1" fill="#010101" d="M 773.5,115.5 C 773.5,121.5 773.5,127.5 773.5,133.5C 763.833,133.5 754.167,133.5 744.5,133.5C 744.5,136.5 744.5,139.5 744.5,142.5C 754.833,142.5 765.167,142.5 775.5,142.5C 775.5,148.833 775.5,155.167 775.5,161.5C 757.167,161.5 738.833,161.5 720.5,161.5C 720.5,136.833 720.5,112.167 720.5,87.5C 738.833,87.5 757.167,87.5 775.5,87.5C 775.5,94.1667 775.5,100.833 775.5,107.5C 765.167,107.5 754.833,107.5 744.5,107.5C 744.5,110.167 744.5,112.833 744.5,115.5C 754.167,115.5 763.833,115.5 773.5,115.5 Z"/></g>
<g><path style="opacity:1" fill="#262626" d="M 787.5,87.5 C 787.5,93.5 787.5,99.5 787.5,105.5C 792.695,105.179 797.695,105.513 802.5,106.5C 797.167,106.5 791.833,106.5 786.5,106.5C 786.177,99.9779 786.51,93.6446 787.5,87.5 Z"/></g>
<g><path style="opacity:1" fill="#000000" d="M 787.5,87.5 C 805.833,87.5 824.167,87.5 842.5,87.5C 842.5,93.5 842.5,99.5 842.5,105.5C 836.974,105.179 831.64,105.512 826.5,106.5C 826.5,124.833 826.5,143.167 826.5,161.5C 818.833,161.5 811.167,161.5 803.5,161.5C 803.83,142.992 803.497,124.659 802.5,106.5C 797.695,105.513 792.695,105.179 787.5,105.5C 787.5,99.5 787.5,93.5 787.5,87.5 Z"/></g>
<g><path style="opacity:1" fill="#000000" d="M 908.5,87.5 C 908.5,93.8333 908.5,100.167 908.5,106.5C 898.319,106.173 888.319,106.506 878.5,107.5C 877.167,109.833 877.167,112.167 878.5,114.5C 887.652,115.494 896.985,115.827 906.5,115.5C 906.5,121.833 906.5,128.167 906.5,134.5C 896.833,134.5 887.167,134.5 877.5,134.5C 877.5,143.5 877.5,152.5 877.5,161.5C 869.833,161.5 862.167,161.5 854.5,161.5C 854.5,136.833 854.5,112.167 854.5,87.5C 872.5,87.5 890.5,87.5 908.5,87.5 Z"/></g>
<g><path style="opacity:1" fill="#020202" d="M 920.5,87.5 C 928.5,87.5 936.5,87.5 944.5,87.5C 944.333,103.837 944.5,120.17 945,136.5C 948.182,143.498 953.349,145.331 960.5,142C 962.359,140.442 963.859,138.609 965,136.5C 965.5,120.17 965.667,103.837 965.5,87.5C 973.5,87.5 981.5,87.5 989.5,87.5C 989.667,103.503 989.5,119.503 989,135.5C 986.015,155.47 974.349,164.803 954,163.5C 935.327,164.352 924.327,155.686 921,137.5C 920.5,120.837 920.333,104.17 920.5,87.5 Z"/></g>
<g><path style="opacity:1" fill="#010101" d="M 1000.5,87.5 C 1008.5,87.5 1016.5,87.5 1024.5,87.5C 1024.5,105.5 1024.5,123.5 1024.5,141.5C 1032.5,141.5 1040.5,141.5 1048.5,141.5C 1048.5,148.167 1048.5,154.833 1048.5,161.5C 1032.5,161.5 1016.5,161.5 1000.5,161.5C 1000.5,136.833 1000.5,112.167 1000.5,87.5 Z"/></g>
<g><path style="opacity:1" fill="#2a2a2a" d="M 842.5,87.5 C 843.49,93.6446 843.823,99.9779 843.5,106.5C 837.833,106.5 832.167,106.5 826.5,106.5C 831.64,105.512 836.974,105.179 842.5,105.5C 842.5,99.5 842.5,93.5 842.5,87.5 Z"/></g>
<g><path style="opacity:1" fill="#2d2d2d" d="M 432.5,87.5 C 433.491,93.979 433.824,100.646 433.5,107.5C 422.833,107.5 412.167,107.5 401.5,107.5C 411.653,106.506 421.986,106.172 432.5,106.5C 432.5,100.167 432.5,93.8333 432.5,87.5 Z"/></g>
<g><path style="opacity:0.848" fill="#808080" d="M 482.5,106.5 C 493.501,104.223 502.668,107.223 510,115.5C 514.763,132.641 508.263,141.641 490.5,142.5C 474.267,141.774 467.434,133.44 470,117.5C 473.044,112.561 477.211,108.894 482.5,106.5 Z M 487.5,109.5 C 473.073,113.948 470.073,122.448 478.5,135C 487.837,141.151 496.67,140.651 505,133.5C 509.951,117.923 504.118,109.923 487.5,109.5 Z"/></g>
<g><path style="opacity:0.852" fill="#838383" d="M 572.5,105.5 C 578.045,104.819 581.712,106.986 583.5,112C 581.818,117.185 578.152,119.352 572.5,118.5C 572.5,114.167 572.5,109.833 572.5,105.5 Z M 576.5,109.5 C 576.215,111.288 576.548,112.955 577.5,114.5C 580.114,112.399 579.78,110.732 576.5,109.5 Z"/></g>
<g><path style="opacity:1" fill="#252525" d="M 908.5,87.5 C 909.491,93.979 909.824,100.646 909.5,107.5C 899.167,107.5 888.833,107.5 878.5,107.5C 888.319,106.506 898.319,106.173 908.5,106.5C 908.5,100.167 908.5,93.8333 908.5,87.5 Z"/></g>
<g><path style="opacity:1" fill="#262626" d="M 878.5,114.5 C 888.167,114.5 897.833,114.5 907.5,114.5C 907.824,121.354 907.491,128.021 906.5,134.5C 906.5,128.167 906.5,121.833 906.5,115.5C 896.985,115.827 887.652,115.494 878.5,114.5 Z"/></g>
<g><path style="opacity:1" fill="#272727" d="M 708.5,122.5 C 707.596,121.791 707.263,120.791 707.5,119.5C 693.833,119.5 680.167,119.5 666.5,119.5C 666.5,125.167 666.5,130.833 666.5,136.5C 671.544,136.173 676.544,136.506 681.5,137.5C 681.376,138.107 681.043,138.44 680.5,138.5C 675.695,137.513 670.695,137.179 665.5,137.5C 665.5,131.167 665.5,124.833 665.5,118.5C 679.833,118.5 694.167,118.5 708.5,118.5C 708.5,119.833 708.5,121.167 708.5,122.5 Z"/></g>
<g><path style="opacity:1" fill="#373737" d="M 573.5,141.5 C 572.833,148.167 572.167,154.833 571.5,161.5C 571.17,154.468 571.503,147.468 572.5,140.5C 573.107,140.624 573.44,140.957 573.5,141.5 Z"/></g>
<g><path style="opacity:1" fill="#5e5e5e" d="M 773.5,115.5 C 774.49,121.645 774.823,127.978 774.5,134.5C 764.833,134.5 755.167,134.5 745.5,134.5C 745.5,136.833 745.5,139.167 745.5,141.5C 755.681,141.173 765.681,141.506 775.5,142.5C 765.167,142.5 754.833,142.5 744.5,142.5C 744.5,139.5 744.5,136.5 744.5,133.5C 754.167,133.5 763.833,133.5 773.5,133.5C 773.5,127.5 773.5,121.5 773.5,115.5 Z"/></g>
<g><path style="opacity:1" fill="#645b53" d="M 107.5,147.5 C 105.84,213.121 104.84,278.788 104.5,344.5C 104.5,278.833 104.5,213.167 104.5,147.5C 105.5,147.5 106.5,147.5 107.5,147.5 Z"/></g>
<g><path style="opacity:1" fill="#9d8b79" d="M 112.5,155.5 C 188.833,155.5 265.167,155.5 341.5,155.5C 341.5,174.5 341.5,193.5 341.5,212.5C 289.833,212.5 238.167,212.5 186.5,212.5C 186.5,215.167 186.5,217.833 186.5,220.5C 238.167,220.5 289.833,220.5 341.5,220.5C 341.5,241.167 341.5,261.833 341.5,282.5C 289.833,282.5 238.167,282.5 186.5,282.5C 186.5,285.167 186.5,287.833 186.5,290.5C 237.833,290.5 289.167,290.5 340.5,290.5C 333.761,325.069 312.761,342.902 277.5,344C 222.501,344.5 167.501,344.667 112.5,344.5C 112.5,281.5 112.5,218.5 112.5,155.5 Z"/></g>
<g><path style="opacity:0.697" fill="#838383" d="M 447.5,208.5 C 466.5,208.5 485.5,208.5 504.5,208.5C 504.5,215.833 504.5,223.167 504.5,230.5C 494.833,230.5 485.167,230.5 475.5,230.5C 475.5,231.833 475.5,233.167 475.5,234.5C 484.5,234.5 493.5,234.5 502.5,234.5C 502.5,241.5 502.5,248.5 502.5,255.5C 493.5,255.5 484.5,255.5 475.5,255.5C 475.5,256.5 475.5,257.5 475.5,258.5C 485.167,258.5 494.833,258.5 504.5,258.5C 504.5,265.833 504.5,273.167 504.5,280.5C 485.5,280.5 466.5,280.5 447.5,280.5C 447.5,256.5 447.5,232.5 447.5,208.5 Z"/></g>
<g><path style="opacity:0.645" fill="#7b7b7b" d="M 508.5,208.5 C 517.506,208.334 526.506,208.5 535.5,209C 542.975,218.776 550.808,228.276 559,237.5C 559.5,227.839 559.666,218.172 559.5,208.5C 568.5,208.5 577.5,208.5 586.5,208.5C 586.5,232.5 586.5,256.5 586.5,280.5C 578.16,280.666 569.827,280.5 561.5,280C 553.333,270.5 545.167,261 537,251.5C 536.5,261.161 536.334,270.828 536.5,280.5C 527.167,280.5 517.833,280.5 508.5,280.5C 508.5,256.5 508.5,232.5 508.5,208.5 Z"/></g>
<g><path style="opacity:0.644" fill="#818181" d="M 677.5,208.5 C 686.833,208.5 696.167,208.5 705.5,208.5C 705.5,232.5 705.5,256.5 705.5,280.5C 696.167,280.5 686.833,280.5 677.5,280.5C 677.5,256.5 677.5,232.5 677.5,208.5 Z"/></g>
<g><path style="opacity:0.661" fill="#777777" d="M 709.5,208.5 C 718.506,208.334 727.506,208.5 736.5,209C 744.453,218.408 752.286,227.908 760,237.5C 760.5,227.839 760.666,218.172 760.5,208.5C 769.833,208.5 779.167,208.5 788.5,208.5C 788.667,232.169 788.5,255.836 788,279.5C 779.579,280.649 771.079,280.816 762.5,280C 754.333,270.5 746.167,261 738,251.5C 737.5,261.161 737.334,270.828 737.5,280.5C 728.167,280.5 718.833,280.5 709.5,280.5C 709.5,256.5 709.5,232.5 709.5,208.5 Z"/></g>
<g><path style="opacity:0.717" fill="#858585" d="M 792.5,208.5 C 811.167,208.5 829.833,208.5 848.5,208.5C 848.5,215.833 848.5,223.167 848.5,230.5C 838.833,230.5 829.167,230.5 819.5,230.5C 819.5,231.833 819.5,233.167 819.5,234.5C 828.5,234.5 837.5,234.5 846.5,234.5C 846.5,241.5 846.5,248.5 846.5,255.5C 837.5,255.5 828.5,255.5 819.5,255.5C 819.5,256.5 819.5,257.5 819.5,258.5C 829.167,258.5 838.833,258.5 848.5,258.5C 848.5,265.833 848.5,273.167 848.5,280.5C 829.833,280.5 811.167,280.5 792.5,280.5C 792.5,256.5 792.5,232.5 792.5,208.5 Z"/></g>
<g><path style="opacity:0.626" fill="#818181" d="M 852.5,208.5 C 871.5,208.5 890.5,208.5 909.5,208.5C 909.5,215.833 909.5,223.167 909.5,230.5C 899.833,230.5 890.167,230.5 880.5,230.5C 880.5,231.833 880.5,233.167 880.5,234.5C 889.5,234.5 898.5,234.5 907.5,234.5C 907.5,241.5 907.5,248.5 907.5,255.5C 898.5,255.5 889.5,255.5 880.5,255.5C 880.5,256.5 880.5,257.5 880.5,258.5C 890.167,258.5 899.833,258.5 909.5,258.5C 909.5,265.833 909.5,273.167 909.5,280.5C 890.5,280.5 871.5,280.5 852.5,280.5C 852.5,256.5 852.5,232.5 852.5,208.5 Z"/></g>
<g><path style="opacity:0.669" fill="#7d7d7d" d="M 913.5,208.5 C 927.504,208.333 941.504,208.5 955.5,209C 973.104,214.46 978.937,225.96 973,243.5C 970.079,247.092 966.579,249.925 962.5,252C 968.646,259.78 975.146,267.28 982,274.5C 983.187,276.044 983.52,277.711 983,279.5C 972.243,280.653 961.41,280.82 950.5,280C 948.052,275.885 945.219,272.052 942,268.5C 941.501,272.486 941.334,276.486 941.5,280.5C 932.167,280.5 922.833,280.5 913.5,280.5C 913.5,256.5 913.5,232.5 913.5,208.5 Z M 941.5,229.5 C 945.184,230.372 946.184,232.539 944.5,236C 943.552,236.483 942.552,236.649 941.5,236.5C 941.5,234.167 941.5,231.833 941.5,229.5 Z"/></g>
<g><path style="opacity:1" fill="#565656" d="M 845.5,228.5 C 845.5,222.5 845.5,216.5 845.5,210.5C 828.833,210.5 812.167,210.5 795.5,210.5C 795.5,233.167 795.5,255.833 795.5,278.5C 794.502,255.673 794.169,232.673 794.5,209.5C 811.833,209.5 829.167,209.5 846.5,209.5C 846.823,216.022 846.49,222.355 845.5,228.5 Z"/></g>
<g><path style="opacity:1" fill="#010101" d="M 473.5,228.5 C 472.527,230.948 472.194,233.615 472.5,236.5C 481.5,236.5 490.5,236.5 499.5,236.5C 499.5,242.167 499.5,247.833 499.5,253.5C 490.5,253.5 481.5,253.5 472.5,253.5C 472.5,255.833 472.5,258.167 472.5,260.5C 482.167,260.5 491.833,260.5 501.5,260.5C 501.5,266.5 501.5,272.5 501.5,278.5C 484.5,278.5 467.5,278.5 450.5,278.5C 450.5,255.833 450.5,233.167 450.5,210.5C 467.5,210.5 484.5,210.5 501.5,210.5C 501.5,216.5 501.5,222.5 501.5,228.5C 492.167,228.5 482.833,228.5 473.5,228.5 Z"/></g>
<g><path style="opacity:1" fill="#010101" d="M 511.5,210.5 C 518.841,210.334 526.174,210.5 533.5,211C 543,222.5 552.5,234 562,245.5C 562.5,233.838 562.667,222.171 562.5,210.5C 569.5,210.5 576.5,210.5 583.5,210.5C 583.5,233.167 583.5,255.833 583.5,278.5C 576.825,278.666 570.158,278.5 563.5,278C 553.548,266.593 543.715,255.093 534,243.5C 533.5,255.162 533.333,266.829 533.5,278.5C 526.167,278.5 518.833,278.5 511.5,278.5C 511.5,255.833 511.5,233.167 511.5,210.5 Z"/></g>
<g><path style="opacity:1" fill="#020202" d="M 680.5,210.5 C 687.833,210.5 695.167,210.5 702.5,210.5C 702.5,233.167 702.5,255.833 702.5,278.5C 695.167,278.5 687.833,278.5 680.5,278.5C 680.5,255.833 680.5,233.167 680.5,210.5 Z"/></g>
<g><path style="opacity:1" fill="#020202" d="M 762.5,244.5 C 762.56,245.043 762.893,245.376 763.5,245.5C 764.499,233.852 764.832,222.186 764.5,210.5C 771.5,210.5 778.5,210.5 785.5,210.5C 785.5,233.167 785.5,255.833 785.5,278.5C 778.492,278.666 771.492,278.5 764.5,278C 755.041,266.206 745.208,254.706 735,243.5C 734.5,255.162 734.333,266.829 734.5,278.5C 727.167,278.5 719.833,278.5 712.5,278.5C 712.5,255.833 712.5,233.167 712.5,210.5C 719.841,210.334 727.174,210.5 734.5,211C 743.668,222.332 753.001,233.499 762.5,244.5 Z"/></g>
<g><path style="opacity:1" fill="#000000" d="M 845.5,228.5 C 836.167,228.5 826.833,228.5 817.5,228.5C 816.527,230.948 816.194,233.615 816.5,236.5C 825.5,236.5 834.5,236.5 843.5,236.5C 843.5,241.833 843.5,247.167 843.5,252.5C 834.651,252.174 825.984,252.507 817.5,253.5C 817.5,255.833 817.5,258.167 817.5,260.5C 826.833,260.5 836.167,260.5 845.5,260.5C 845.5,266.5 845.5,272.5 845.5,278.5C 828.833,278.5 812.167,278.5 795.5,278.5C 795.5,255.833 795.5,233.167 795.5,210.5C 812.167,210.5 828.833,210.5 845.5,210.5C 845.5,216.5 845.5,222.5 845.5,228.5 Z"/></g>
<g><path style="opacity:1" fill="#010101" d="M 855.5,210.5 C 872.5,210.5 889.5,210.5 906.5,210.5C 906.5,216.5 906.5,222.5 906.5,228.5C 896.833,228.5 887.167,228.5 877.5,228.5C 877.5,231.167 877.5,233.833 877.5,236.5C 886.5,236.5 895.5,236.5 904.5,236.5C 904.5,242.167 904.5,247.833 904.5,253.5C 895.5,253.5 886.5,253.5 877.5,253.5C 877.5,255.833 877.5,258.167 877.5,260.5C 887.167,260.5 896.833,260.5 906.5,260.5C 906.5,266.5 906.5,272.5 906.5,278.5C 889.5,278.5 872.5,278.5 855.5,278.5C 855.5,255.833 855.5,233.167 855.5,210.5 Z"/></g>
<g><path style="opacity:1" fill="#010101" d="M 916.5,210.5 C 928.505,210.333 940.505,210.5 952.5,211C 970.194,214.886 976.027,225.386 970,242.5C 966.908,246.423 963.074,249.423 958.5,251.5C 965.833,260.167 973.167,268.833 980.5,277.5C 971.167,278.833 961.833,278.833 952.5,277.5C 948.192,271.359 943.692,265.359 939,259.5C 938.5,265.825 938.334,272.158 938.5,278.5C 931.167,278.5 923.833,278.5 916.5,278.5C 916.5,255.833 916.5,233.167 916.5,210.5 Z M 941.5,229.5 C 941.5,231.833 941.5,234.167 941.5,236.5C 942.552,236.649 943.552,236.483 944.5,236C 946.184,232.539 945.184,230.372 941.5,229.5 Z"/></g>
<g><path style="opacity:0.996" fill="#252525" d="M 764.5,210.5 C 764.832,222.186 764.499,233.852 763.5,245.5C 762.893,245.376 762.56,245.043 762.5,244.5C 763.167,233.167 763.833,221.833 764.5,210.5 Z"/></g>
<g><path style="opacity:0.716" fill="#7d7d7d" d="M 629.5,205.5 C 648.878,204.014 662.544,212.014 670.5,229.5C 664.992,232.283 659.326,234.783 653.5,237C 660.158,237.5 666.825,237.666 673.5,237.5C 675.345,267.321 661.345,282.321 631.5,282.5C 606.15,282.34 592.483,269.673 590.5,244.5C 592.516,220.484 605.516,207.484 629.5,205.5 Z M 629.5,228.5 C 636.073,228.248 640.74,231.081 643.5,237C 638.177,237.499 632.844,237.666 627.5,237.5C 627.334,244.175 627.5,250.842 628,257.5C 631.745,258.297 635.579,258.797 639.5,259C 629.508,263.255 623.008,260.088 620,249.5C 617.95,239.908 621.117,232.908 629.5,228.5 Z"/></g>
<g><path style="opacity:1" fill="#020202" d="M 644.5,257.5 C 645.043,257.44 645.376,257.107 645.5,256.5C 640.544,255.506 635.544,255.173 630.5,255.5C 630.5,250.167 630.5,244.833 630.5,239.5C 643.833,239.5 657.167,239.5 670.5,239.5C 672.539,263.274 661.872,276.774 638.5,280C 607.399,282.574 592.566,268.407 594,237.5C 597.349,222.483 606.515,212.983 621.5,209C 637.834,205.113 651.668,209.28 663,221.5C 664.555,223.443 665.722,225.61 666.5,228C 660.687,231.392 654.52,234.226 648,236.5C 645.846,233.729 643.346,231.229 640.5,229C 630.968,224.133 623.468,226.3 618,235.5C 614.846,244.661 616.346,252.827 622.5,260C 627.779,263.701 633.445,264.368 639.5,262C 641.66,261.004 643.327,259.504 644.5,257.5 Z"/></g>
<g><path style="opacity:0.735" fill="#808080" d="M 938.5,227.5 C 943.487,226.308 946.82,227.975 948.5,232.5C 948.563,234.481 947.896,236.148 946.5,237.5C 943.979,238.785 941.313,239.452 938.5,239.5C 938.5,235.5 938.5,231.5 938.5,227.5 Z M 941.5,229.5 C 941.5,231.833 941.5,234.167 941.5,236.5C 942.552,236.649 943.552,236.483 944.5,236C 946.184,232.539 945.184,230.372 941.5,229.5 Z"/></g>
<g><path style="opacity:1" fill="#626262" d="M 473.5,228.5 C 473.5,230.833 473.5,233.167 473.5,235.5C 482.349,235.174 491.016,235.507 499.5,236.5C 490.5,236.5 481.5,236.5 472.5,236.5C 472.194,233.615 472.527,230.948 473.5,228.5 Z"/></g>
<g><path style="opacity:1" fill="#5c5c5c" d="M 817.5,228.5 C 817.5,230.833 817.5,233.167 817.5,235.5C 826.682,235.173 835.682,235.507 844.5,236.5C 844.167,236.5 843.833,236.5 843.5,236.5C 834.5,236.5 825.5,236.5 816.5,236.5C 816.194,233.615 816.527,230.948 817.5,228.5 Z"/></g>
<g><path style="opacity:1" fill="#2a2a2a" d="M 843.5,236.5 C 843.833,236.5 844.167,236.5 844.5,236.5C 844.5,242.167 844.5,247.833 844.5,253.5C 835.5,253.5 826.5,253.5 817.5,253.5C 825.984,252.507 834.651,252.174 843.5,252.5C 843.5,247.167 843.5,241.833 843.5,236.5 Z"/></g>
<g><path style="opacity:1" fill="#464646" d="M 630.5,255.5 C 635.544,255.173 640.544,255.506 645.5,256.5C 645.376,257.107 645.043,257.44 644.5,257.5C 639.833,256.833 635.167,256.167 630.5,255.5 Z"/></g>
</svg>
